<svg id="Layer_10" xmlns="http://www.w3.org/2000/svg" viewBox="0 0 1280 600">
  <style>
    .st0 {
      fill: #fff;
      fill-opacity: 0.5;
      stroke: #fff;
      stroke-width: 5;
      stroke-miterlimit: 10
    }
  </style>
  <path id="XMLID_260_" class="st0" d="M80.9 66.9c-11-1.3-22.3-2-33.7-2-11.4 0-22.6.7-33.7 2v435h67.4v-367c87.8 13.6 154.5 79.4 154.5 158.2v208.8h67.4V293c-.1-115.6-96.9-211.4-221.9-226.1z"
  />
  <path id="XMLID_257_" class="st0" d="M674 473.9c-106.3 0-192.5-86.2-192.5-192.5S567.7 88.9 674 88.9c30.5 0 59.3 7.1 84.9 19.7-35.9-26.4-80.2-42-128.2-42-119.7 0-216.7 97-216.7 216.7 0 119.7 97 216.8 216.8 216.8 54.9 0 104.9-20.4 143.1-54-29.2 17.6-63.3 27.8-99.9 27.8z"
  />
  <path id="XMLID_254_" class="st0" d="M667.3 432.6h-5.1l1.1-69.2s.7-4.4-5.3-3.7l-65.6-.1 5.7-13.5s.6-3.6-3.1-6.7l-65.1-54.3 15.8-6.7s4.3-1.9 2.3-8.1l-11.3-40.8 37.7 8.1s5.4 2 7.5-4.2l4.6-17.6 30.7 35.1s13.3 12.1 10.2-5.9l-13.6-70.4L633 185s6.9 4 10.6-2.9l23.6-44.4 23.6 44.4c3.7 6.9 10.6 2.9 10.6 2.9l19.4-10.4-13.6 70.4c-3.1 18 10.2 5.9 10.2 5.9l30.7-35.1 4.6 17.6c2.1 6.2 7.5 4.2 7.5 4.2l37.7-8.1-11.3 40.8c-2 6.2 2.3 8.1 2.3 8.1l15.8 6.7-65.1 54.3c-3.6 3.1-3.1 6.7-3.1 6.7l5.7 13.5-65.6.1c-6.1-.7-5.3 3.7-5.3 3.7l1.1 69.2h-5.1"
  />
  <path id="XMLID_220_" class="st0" d="M381.6 30.7l-.2-.2-.5-.4L359.8 13l-21.1 17.2-.5.4-.2.2c-7.3 6.2-11.9 15.4-11.9 25.6v445.5h67.4V56.4c0-10.3-4.6-19.5-11.9-25.7z"
  />
  <path id="XMLID_219_" class="st0" d="M798.6 587l67.7-67.3h396.4V587z" />
  <path id="XMLID_5_" class="st0" d="M1200.6 285.1c0 82.4-67 149.4-149.4 149.4-38.1 0-73-14.4-99.4-38l210.8-210.8 47.7-47.7c-15.4-16.6-33.3-30.8-53.2-42-31.3-17.6-67.4-27.6-105.9-27.6-119.7 0-216.7 97-216.7 216.8 0 38.5 10 74.6 27.6 105.9L733.3 519.7H11.6V587h749.7l67.4-67.4 75.5-75.5c38.6 35.8 90.3 57.6 147.1 57.6 119.7 0 216.8-97 216.8-216.8h-67.5zm-298.8 0c0-82.4 67-149.4 149.4-149.4 19.6 0 38.3 3.8 55.4 10.7L912.5 340.5c-6.9-17.1-10.7-35.9-10.7-55.4z"
  />
</svg>
